<?xml version="1.0" standalone="no"?>
<!DOCTYPE svg PUBLIC "-//W3C//DTD SVG 20010904//EN"
 "http://www.w3.org/TR/2001/REC-SVG-20010904/DTD/svg10.dtd">
<svg version="1.0" xmlns="http://www.w3.org/2000/svg"
 width="200.000000pt" height="96.000000pt" viewBox="0 0 200.000000 96.000000"
 preserveAspectRatio="xMidYMid meet">
<metadata>
Created by potrace 1.15, written by Peter Selinger 2001-2017
</metadata>
<g transform="translate(0.000000,96.000000) scale(0.100000,-0.100000)"
fill="#000000" stroke="none">
<path d="M650 485 l0 -315 35 0 35 0 0 110 c0 81 3 110 13 110 6 0 66 -49 132
-110 118 -108 121 -109 170 -110 28 0 45 4 40 9 -6 5 -68 61 -140 126 -71 64
-131 120 -133 125 -2 5 55 48 125 97 l128 88 -53 3 c-51 3 -55 1 -161 -72 -60
-42 -112 -76 -115 -76 -3 0 -6 74 -6 165 l0 165 -35 0 -35 0 0 -315z"/>
<path d="M195 603 c-83 -44 -119 -108 -120 -213 0 -64 4 -82 28 -122 29 -50
89 -93 145 -104 48 -10 117 4 156 31 l36 24 0 -24 c0 -22 4 -25 35 -25 l35 0
0 220 0 220 -35 0 c-28 0 -35 -4 -35 -20 0 -19 -2 -18 -46 5 -56 30 -151 34
-199 8z m172 -63 c119 -72 95 -272 -38 -312 -51 -15 -112 3 -150 43 -50 53
-57 160 -14 225 40 62 138 83 202 44z"/>
<path d="M1284 606 c-18 -8 -35 -19 -38 -25 -11 -18 -26 -13 -26 9 0 16 -7 20
-35 20 l-35 0 0 -220 0 -220 35 0 35 0 0 136 c0 162 10 191 77 231 38 22 52
25 104 20 l59 -5 0 28 c0 16 -7 30 -16 34 -28 11 -128 6 -160 -8z"/>
<path d="M1625 603 c-83 -44 -120 -108 -120 -213 0 -82 13 -115 62 -164 62
-63 160 -83 238 -47 172 78 180 336 13 422 -47 24 -150 25 -193 2z m175 -66
c72 -48 95 -152 53 -233 -55 -107 -217 -105 -268 3 -24 50 -23 132 2 175 44
76 144 102 213 55z"/>
</g>
</svg>
