<svg id="Layer_1" data-name="Layer 1" xmlns="http://www.w3.org/2000/svg" viewBox="0 0 2393.276 513.513">
  <defs>
    <style>
      .cls-1 {
        fill: #071630;
      }

      .cls-2 {
        fill: #fc0;
      }
    </style>
  </defs>
  <title>a4c3d53a-5db2-4181-bdca-9765512f76a2</title>
  <g>
    <polygon class="cls-1" points="699.506 106.395 776.843 106.431 893.704 351.129 929.693 106.484 1004.524 106.494 950.772 471.942 880.559 471.929 758.153 218.227 721.064 471.865 645.665 471.841 699.506 106.395"/>
    <path class="cls-1" d="M1226.557,440.171q38.715-36.33,38.72-87.818.021-53.427-35.439-87.119-35.5-33.672-91.707-33.713-51.235,0-89.651,38.388t-38.429,89.9q-.023,48.434,35.87,82.522,35.92,34.142,87.1,34.111Q1187.878,476.48,1226.557,440.171ZM1137.51,413.84q-23.641,0-39.669-16.286-15.993-16.286-15.978-40.8,0-25.608,16.283-43.537,16.308-17.985,39.383-17.948,25.081-.007,40.784,16.282,15.72,16.293,15.71,42.461a59.367,59.367,0,0,1-16.705,42.016Q1160.61,413.838,1137.51,413.84Z"/>
    <path class="cls-1" d="M1521.867,417.854,1473.449,392.8q-21.735,28.656-52.037,28.663-44.25-.027-50.632-50.957l161.944.053q.856-69.86-29.331-104.4-30.2-34.516-81.39-34.546-50.895-.021-87.534,38.531-36.6,38.535-36.632,92.542-.019,49.8,32.143,81.826,32.13,32.036,82.506,32.021Q1474.529,476.559,1521.867,417.854Zm-147.749-94.676q15.059-38.132,50.384-38.118,41.177.01,45.907,38.145Z"/>
    <path class="cls-2" d="M1876.558,131.841l-9.769,66.81q-36.445-30.361-84.878-30.369-54.552-.015-95.48,40.057-40.947,40.048-40.946,92.946-.026,47.319,29.337,76.951,29.343,29.688,76.115,29.694,42.86-.01,92.406-26.979l-10.865,74.311q-45.1,23.363-91.855,23.368-81.265-.03-127.209-51.282-45.893-51.218-45.878-121.66.038-93.51,61.566-149,61.516-55.519,135.016-55.51,67.065.014,112.44,30.662"/>
    <path class="cls-2" d="M1945.865,79.546l67.827.023-26.908,182.986q18.955-15.906,33.448-23.324a69.513,69.513,0,0,1,32.056-7.414q27.591.005,44.164,21.725t16.563,58.739a115.489,115.489,0,0,1-1.971,20.3l-20.693,139.744-68.074-.041,16.455-114.1a298.6,298.6,0,0,0,4.2-46.756q.006-12.257-6.836-19.493c-4.536-4.822-10.648-7.244-18.282-7.246q-34.368.014-43.6,63.424L1955.96,472.281l-68.669-.04Z"/>
    <path class="cls-2" d="M2358.4,472.393l34.873-235.45-68.354-.028-4.431,30.346q-37.285-35.345-78.214-35.382-46.224,0-78.65,40.079-32.454,40.05-32.473,97.675-.013,46.5,25.746,76.828,25.8,30.359,64.793,30.359,37.349,0,72.48-28.932l-3.565,24.485ZM2247.4,416.421q-21.667.007-34.443-14.485-12.794-14.458-12.771-38.422,0-30.562,16.122-50.636,16.127-20.023,40.589-20.033,21.644.018,36.5,15.618,14.884,15.57,14.871,38.388-.006,29.514-17.8,49.534Q2272.664,416.439,2247.4,416.421Z"/>
  </g>
  <g>
    <polygon class="cls-1" points="396.811 0 346.707 341.589 183.993 0 76.332 0 1.563 508.801 106.499 508.801 156.201 168.222 158.162 156.353 160.747 161.293 328.573 508.797 426.355 508.797 501.034 0 396.811 0"/>
    <path class="cls-2" d="M290.685,428.691c-39.69-2.557-73.657-11.753-101.94-26.994-25.866-13.955-58.791-53.167-58.95-53.357v0A134.1,134.1,0,0,1,115,315.085q-16.419-55.771,14.84-113.725a169.742,169.742,0,0,1,26.86-37.273v-.005c1.294-1.428,2.677-2.858,4.149-4.239v0q31.241-30.834,78.874-44.914h.016s1.074-.313,1.611-.492q72.924-21.049,137.019,10.637v0c2.147,1.029,4.337,2.148,6.48,3.306q58.921,31.774,83.661,92.424a5.949,5.949,0,0,1,.358.8l56.043-75.438a234.2,234.2,0,0,0-37.764-52.377q-31.982-33.653-79.818-59.4c-4.828-2.591-9.7-5.047-14.619-7.286h0Q308.245-11.978,205.192,13.3c-4.2,1.024-12.425,3.351-12.425,3.351q-79.847,23.6-132.78,93.806v0l0,0A347.674,347.674,0,0,0,31.336,155.37q-46.451,86.275-24,179.381c3.349,13.854,13.852,39.6,13.852,39.6h0q27.22,57.788,90.631,97.026s11.487,6.883,17.563,10.142q57.323,30.906,128.048,32L302.441,453l0,0,17.386-23.369S311.969,430.063,290.685,428.691Z"/>
    <polyline class="cls-1" points="328.573 508.797 426.355 508.797 501.034 0 396.811 0 346.707 341.589"/>
  </g>
</svg>
